<svg width="173" height="172" xmlns="http://www.w3.org/2000/svg" xmlns:xlink="http://www.w3.org/1999/xlink" overflow="hidden"><defs><clipPath id="clip0"><rect x="379" y="290" width="173" height="172"/></clipPath></defs><g clip-path="url(#clip0)" transform="translate(-379 -290)"><path d="M86 17.9256C48.3987 17.9256 17.9167 48.4076 17.9167 86.009 17.9167 123.61 48.3987 154.092 86 154.092 123.601 154.092 154.083 123.61 154.083 86.009 154.083 48.4076 123.601 17.9256 86 17.9256ZM113.368 123.634 86 104.687 58.6287 123.634 68.1012 92.0558 43.8958 71.0038 75.4704 71.0038 86 39.4256 96.5225 71.0038 128.104 71.0038 103.89 92.0558Z" stroke="#000000" stroke-width="1.79167" transform="matrix(1.00581 0 0 1 379 290)"/></g></svg>